<mxfile host="65bd71144e">
    <diagram name="Page-1" id="r0YyQqn12PZraKubwPXk">
        <mxGraphModel dx="2136" dy="691" grid="0" gridSize="10" guides="1" tooltips="1" connect="1" arrows="1" fold="1" page="0" pageScale="1" pageWidth="827" pageHeight="1169" math="0" shadow="0">
            <root>
                <mxCell id="0"/>
                <mxCell id="1" parent="0"/>
                <mxCell id="y37O_EtNxGeb2DHq4B8L-5" value="Portal Site" style="swimlane;horizontal=0;whiteSpace=wrap;html=1;" parent="1" vertex="1">
                    <mxGeometry x="-62" y="317" width="1947" height="200" as="geometry"/>
                </mxCell>
                <mxCell id="y37O_EtNxGeb2DHq4B8L-11" style="edgeStyle=orthogonalEdgeStyle;rounded=0;orthogonalLoop=1;jettySize=auto;html=1;exitX=1;exitY=0.5;exitDx=0;exitDy=0;entryX=0;entryY=0.5;entryDx=0;entryDy=0;" parent="y37O_EtNxGeb2DHq4B8L-5" source="y37O_EtNxGeb2DHq4B8L-2" target="y37O_EtNxGeb2DHq4B8L-10" edge="1">
                    <mxGeometry relative="1" as="geometry"/>
                </mxCell>
                <mxCell id="y37O_EtNxGeb2DHq4B8L-2" value="Inicio Formulario" style="rounded=0;whiteSpace=wrap;html=1;" parent="y37O_EtNxGeb2DHq4B8L-5" vertex="1">
                    <mxGeometry x="108" y="78" width="120" height="44" as="geometry"/>
                </mxCell>
                <mxCell id="y37O_EtNxGeb2DHq4B8L-14" style="edgeStyle=orthogonalEdgeStyle;rounded=0;orthogonalLoop=1;jettySize=auto;html=1;exitX=1;exitY=0.5;exitDx=0;exitDy=0;entryX=0;entryY=0.5;entryDx=0;entryDy=0;" parent="y37O_EtNxGeb2DHq4B8L-5" source="y37O_EtNxGeb2DHq4B8L-10" target="y37O_EtNxGeb2DHq4B8L-13" edge="1">
                    <mxGeometry relative="1" as="geometry"/>
                </mxCell>
                <mxCell id="y37O_EtNxGeb2DHq4B8L-10" value="Selección de Plan" style="rounded=0;whiteSpace=wrap;html=1;" parent="y37O_EtNxGeb2DHq4B8L-5" vertex="1">
                    <mxGeometry x="313" y="78" width="95" height="44" as="geometry"/>
                </mxCell>
                <mxCell id="y37O_EtNxGeb2DHq4B8L-15" style="edgeStyle=orthogonalEdgeStyle;rounded=0;orthogonalLoop=1;jettySize=auto;html=1;exitX=1;exitY=0.5;exitDx=0;exitDy=0;entryX=0;entryY=0.5;entryDx=0;entryDy=0;" parent="y37O_EtNxGeb2DHq4B8L-5" source="y37O_EtNxGeb2DHq4B8L-13" target="y37O_EtNxGeb2DHq4B8L-12" edge="1">
                    <mxGeometry relative="1" as="geometry"/>
                </mxCell>
                <mxCell id="y37O_EtNxGeb2DHq4B8L-13" value="Ingresa datos de Pago" style="rounded=0;whiteSpace=wrap;html=1;" parent="y37O_EtNxGeb2DHq4B8L-5" vertex="1">
                    <mxGeometry x="498" y="78" width="103" height="44" as="geometry"/>
                </mxCell>
                <mxCell id="y37O_EtNxGeb2DHq4B8L-12" value="Pago Recurrente/Unica&lt;div&gt;(usando SF_ID)&lt;/div&gt;" style="rounded=0;whiteSpace=wrap;html=1;fontStyle=1" parent="y37O_EtNxGeb2DHq4B8L-5" vertex="1">
                    <mxGeometry x="655" y="72" width="148" height="56" as="geometry"/>
                </mxCell>
                <mxCell id="y37O_EtNxGeb2DHq4B8L-6" value="Salesforce" style="swimlane;horizontal=0;whiteSpace=wrap;html=1;" parent="1" vertex="1">
                    <mxGeometry x="-62" y="517" width="1947" height="498" as="geometry"/>
                </mxCell>
                <mxCell id="y37O_EtNxGeb2DHq4B8L-53" style="edgeStyle=orthogonalEdgeStyle;shape=connector;curved=0;rounded=1;orthogonalLoop=1;jettySize=auto;html=1;exitX=1;exitY=0.5;exitDx=0;exitDy=0;entryX=0;entryY=0.5;entryDx=0;entryDy=0;strokeColor=default;align=center;verticalAlign=middle;fontFamily=Helvetica;fontSize=11;fontColor=default;labelBackgroundColor=default;endArrow=classic;" parent="y37O_EtNxGeb2DHq4B8L-6" source="y37O_EtNxGeb2DHq4B8L-48" target="y37O_EtNxGeb2DHq4B8L-50" edge="1">
                    <mxGeometry relative="1" as="geometry"/>
                </mxCell>
                <mxCell id="y37O_EtNxGeb2DHq4B8L-48" value="Recepción de Pago" style="rounded=0;whiteSpace=wrap;html=1;" parent="y37O_EtNxGeb2DHq4B8L-6" vertex="1">
                    <mxGeometry x="832" y="86" width="132" height="34" as="geometry"/>
                </mxCell>
                <mxCell id="y37O_EtNxGeb2DHq4B8L-57" style="edgeStyle=orthogonalEdgeStyle;shape=connector;curved=0;rounded=1;orthogonalLoop=1;jettySize=auto;html=1;exitX=1;exitY=0.5;exitDx=0;exitDy=0;entryX=0;entryY=0.5;entryDx=0;entryDy=0;strokeColor=default;align=center;verticalAlign=middle;fontFamily=Helvetica;fontSize=11;fontColor=default;labelBackgroundColor=default;endArrow=classic;" parent="y37O_EtNxGeb2DHq4B8L-6" source="y37O_EtNxGeb2DHq4B8L-50" target="y37O_EtNxGeb2DHq4B8L-56" edge="1">
                    <mxGeometry relative="1" as="geometry"/>
                </mxCell>
                <mxCell id="y37O_EtNxGeb2DHq4B8L-50" value="Obtener Detalles de Pago" style="rounded=0;whiteSpace=wrap;html=1;fontStyle=0" parent="y37O_EtNxGeb2DHq4B8L-6" vertex="1">
                    <mxGeometry x="1026" y="80" width="132" height="46" as="geometry"/>
                </mxCell>
                <mxCell id="y37O_EtNxGeb2DHq4B8L-61" style="edgeStyle=orthogonalEdgeStyle;shape=connector;curved=0;rounded=1;orthogonalLoop=1;jettySize=auto;html=1;exitX=1;exitY=0.5;exitDx=0;exitDy=0;entryX=0;entryY=0.5;entryDx=0;entryDy=0;strokeColor=default;align=center;verticalAlign=middle;fontFamily=Helvetica;fontSize=11;fontColor=default;labelBackgroundColor=default;endArrow=classic;" parent="y37O_EtNxGeb2DHq4B8L-6" source="y37O_EtNxGeb2DHq4B8L-56" target="y37O_EtNxGeb2DHq4B8L-60" edge="1">
                    <mxGeometry relative="1" as="geometry"/>
                </mxCell>
                <mxCell id="y37O_EtNxGeb2DHq4B8L-56" value="Obtener Detalles de&lt;div&gt;Sub&lt;/div&gt;" style="rounded=0;whiteSpace=wrap;html=1;" parent="y37O_EtNxGeb2DHq4B8L-6" vertex="1">
                    <mxGeometry x="1204" y="81" width="132" height="44" as="geometry"/>
                </mxCell>
                <mxCell id="y37O_EtNxGeb2DHq4B8L-63" style="edgeStyle=orthogonalEdgeStyle;shape=connector;curved=0;rounded=1;orthogonalLoop=1;jettySize=auto;html=1;exitX=1;exitY=0.5;exitDx=0;exitDy=0;entryX=0;entryY=0.5;entryDx=0;entryDy=0;strokeColor=default;align=center;verticalAlign=middle;fontFamily=Helvetica;fontSize=11;fontColor=default;labelBackgroundColor=default;endArrow=classic;" parent="y37O_EtNxGeb2DHq4B8L-6" source="y37O_EtNxGeb2DHq4B8L-60" target="y37O_EtNxGeb2DHq4B8L-62" edge="1">
                    <mxGeometry relative="1" as="geometry"/>
                </mxCell>
                <mxCell id="y37O_EtNxGeb2DHq4B8L-60" value="Actualizar SF Sub" style="rounded=0;whiteSpace=wrap;html=1;" parent="y37O_EtNxGeb2DHq4B8L-6" vertex="1">
                    <mxGeometry x="1387" y="86" width="132" height="34" as="geometry"/>
                </mxCell>
                <mxCell id="y37O_EtNxGeb2DHq4B8L-65" style="edgeStyle=orthogonalEdgeStyle;shape=connector;curved=0;rounded=1;orthogonalLoop=1;jettySize=auto;html=1;exitX=1;exitY=0.5;exitDx=0;exitDy=0;entryX=0;entryY=0.5;entryDx=0;entryDy=0;strokeColor=default;align=center;verticalAlign=middle;fontFamily=Helvetica;fontSize=11;fontColor=default;labelBackgroundColor=default;endArrow=classic;" parent="y37O_EtNxGeb2DHq4B8L-6" source="y37O_EtNxGeb2DHq4B8L-62" target="y37O_EtNxGeb2DHq4B8L-64" edge="1">
                    <mxGeometry relative="1" as="geometry"/>
                </mxCell>
                <mxCell id="y37O_EtNxGeb2DHq4B8L-62" value="Crear Gift Commitment" style="rounded=0;whiteSpace=wrap;html=1;" parent="y37O_EtNxGeb2DHq4B8L-6" vertex="1">
                    <mxGeometry x="1558" y="86" width="156" height="34" as="geometry"/>
                </mxCell>
                <mxCell id="y37O_EtNxGeb2DHq4B8L-64" value="Crear Payment" style="rounded=0;whiteSpace=wrap;html=1;" parent="y37O_EtNxGeb2DHq4B8L-6" vertex="1">
                    <mxGeometry x="1767" y="86" width="132" height="34" as="geometry"/>
                </mxCell>
                <mxCell id="lf90Kp6TcROZ7QwA9xwM-1" value="Standard API&lt;div&gt;Insertar Registro&lt;/div&gt;&lt;div&gt;&lt;b&gt;Form_Data__c&lt;/b&gt;&lt;/div&gt;" style="rounded=0;whiteSpace=wrap;html=1;" parent="y37O_EtNxGeb2DHq4B8L-6" vertex="1">
                    <mxGeometry x="108" y="55" width="120" height="62" as="geometry"/>
                </mxCell>
                <mxCell id="lf90Kp6TcROZ7QwA9xwM-7" value="Trigger - Form_Data__c" style="swimlane;whiteSpace=wrap;html=1;strokeWidth=1;" parent="y37O_EtNxGeb2DHq4B8L-6" vertex="1">
                    <mxGeometry x="89" y="205" width="384" height="266" as="geometry"/>
                </mxCell>
                <mxCell id="y37O_EtNxGeb2DHq4B8L-36" value="Usuario&amp;nbsp;&lt;div&gt;Existe?&amp;nbsp;&lt;/div&gt;&lt;div&gt;(Email)&lt;/div&gt;" style="rhombus;whiteSpace=wrap;html=1;" parent="lf90Kp6TcROZ7QwA9xwM-7" vertex="1">
                    <mxGeometry x="30" y="54" width="98" height="80" as="geometry"/>
                </mxCell>
                <mxCell id="y37O_EtNxGeb2DHq4B8L-40" value="Crear y asociar Opportunity al registro Form_Data__c" style="rounded=0;whiteSpace=wrap;html=1;" parent="lf90Kp6TcROZ7QwA9xwM-7" vertex="1">
                    <mxGeometry x="181" y="63" width="148" height="62" as="geometry"/>
                </mxCell>
                <mxCell id="y37O_EtNxGeb2DHq4B8L-42" style="edgeStyle=orthogonalEdgeStyle;shape=connector;curved=0;rounded=1;orthogonalLoop=1;jettySize=auto;html=1;exitX=1;exitY=0.5;exitDx=0;exitDy=0;entryX=0;entryY=0.5;entryDx=0;entryDy=0;strokeColor=default;align=center;verticalAlign=middle;fontFamily=Helvetica;fontSize=11;fontColor=default;labelBackgroundColor=default;endArrow=classic;strokeWidth=2;" parent="lf90Kp6TcROZ7QwA9xwM-7" source="y37O_EtNxGeb2DHq4B8L-36" target="y37O_EtNxGeb2DHq4B8L-40" edge="1">
                    <mxGeometry relative="1" as="geometry"/>
                </mxCell>
                <mxCell id="3" value="Si" style="edgeLabel;html=1;align=center;verticalAlign=middle;resizable=0;points=[];" parent="y37O_EtNxGeb2DHq4B8L-42" vertex="1" connectable="0">
                    <mxGeometry x="-0.0605" y="-1" relative="1" as="geometry">
                        <mxPoint x="-4" y="-1" as="offset"/>
                    </mxGeometry>
                </mxCell>
                <mxCell id="y37O_EtNxGeb2DHq4B8L-37" value="Crear Account Person" style="rounded=0;whiteSpace=wrap;html=1;" parent="lf90Kp6TcROZ7QwA9xwM-7" vertex="1">
                    <mxGeometry x="21" y="184" width="116" height="44" as="geometry"/>
                </mxCell>
                <mxCell id="y37O_EtNxGeb2DHq4B8L-39" style="edgeStyle=orthogonalEdgeStyle;shape=connector;curved=0;rounded=1;orthogonalLoop=1;jettySize=auto;html=1;exitX=0.5;exitY=1;exitDx=0;exitDy=0;entryX=0.5;entryY=0;entryDx=0;entryDy=0;strokeColor=default;align=center;verticalAlign=middle;fontFamily=Helvetica;fontSize=11;fontColor=default;labelBackgroundColor=default;endArrow=classic;strokeWidth=2;" parent="lf90Kp6TcROZ7QwA9xwM-7" source="y37O_EtNxGeb2DHq4B8L-36" target="y37O_EtNxGeb2DHq4B8L-37" edge="1">
                    <mxGeometry relative="1" as="geometry"/>
                </mxCell>
                <mxCell id="5" value="No" style="edgeLabel;html=1;align=center;verticalAlign=middle;resizable=0;points=[];" parent="y37O_EtNxGeb2DHq4B8L-39" vertex="1" connectable="0">
                    <mxGeometry x="-0.3194" relative="1" as="geometry">
                        <mxPoint as="offset"/>
                    </mxGeometry>
                </mxCell>
                <mxCell id="4" style="edgeStyle=orthogonalEdgeStyle;html=1;exitX=1;exitY=0.5;exitDx=0;exitDy=0;entryX=0.5;entryY=1;entryDx=0;entryDy=0;strokeWidth=2;" parent="lf90Kp6TcROZ7QwA9xwM-7" source="y37O_EtNxGeb2DHq4B8L-37" target="y37O_EtNxGeb2DHq4B8L-40" edge="1">
                    <mxGeometry relative="1" as="geometry"/>
                </mxCell>
                <mxCell id="lf90Kp6TcROZ7QwA9xwM-6" style="edgeStyle=orthogonalEdgeStyle;rounded=0;orthogonalLoop=1;jettySize=auto;html=1;exitX=0.5;exitY=1;exitDx=0;exitDy=0;entryX=0.5;entryY=0;entryDx=0;entryDy=0;strokeWidth=2;" parent="y37O_EtNxGeb2DHq4B8L-6" source="lf90Kp6TcROZ7QwA9xwM-1" target="y37O_EtNxGeb2DHq4B8L-36" edge="1">
                    <mxGeometry relative="1" as="geometry"/>
                </mxCell>
                <mxCell id="lf90Kp6TcROZ7QwA9xwM-10" value="Standard API&lt;div&gt;&lt;b&gt;Actualizar &lt;/b&gt;Registro&lt;/div&gt;&lt;div&gt;Form_Data__c&lt;/div&gt;" style="rounded=0;whiteSpace=wrap;html=1;" parent="y37O_EtNxGeb2DHq4B8L-6" vertex="1">
                    <mxGeometry x="301" y="55" width="120" height="62" as="geometry"/>
                </mxCell>
                <mxCell id="lf90Kp6TcROZ7QwA9xwM-12" value="Standard API&lt;div&gt;&lt;b&gt;Actualizar &lt;/b&gt;Registro&lt;/div&gt;&lt;div&gt;Form_Data__c&lt;/div&gt;" style="rounded=0;whiteSpace=wrap;html=1;" parent="y37O_EtNxGeb2DHq4B8L-6" vertex="1">
                    <mxGeometry x="490" y="55" width="120" height="62" as="geometry"/>
                </mxCell>
                <mxCell id="y37O_EtNxGeb2DHq4B8L-8" value="Mercado Pago" style="swimlane;horizontal=0;whiteSpace=wrap;html=1;" parent="1" vertex="1">
                    <mxGeometry x="-62" y="117" width="1947" height="200" as="geometry"/>
                </mxCell>
                <mxCell id="y37O_EtNxGeb2DHq4B8L-16" value="Creación de&lt;div&gt;Suscripción / Preferencia&lt;/div&gt;" style="rounded=0;whiteSpace=wrap;html=1;" parent="y37O_EtNxGeb2DHq4B8L-8" vertex="1">
                    <mxGeometry x="654" y="83" width="150" height="44" as="geometry"/>
                </mxCell>
                <mxCell id="y37O_EtNxGeb2DHq4B8L-51" value="SUBS" style="rounded=0;whiteSpace=wrap;html=1;" parent="y37O_EtNxGeb2DHq4B8L-8" vertex="1">
                    <mxGeometry x="1204" y="88" width="131" height="34" as="geometry"/>
                </mxCell>
                <mxCell id="y37O_EtNxGeb2DHq4B8L-52" value="PAGOS" style="rounded=0;whiteSpace=wrap;html=1;" parent="y37O_EtNxGeb2DHq4B8L-8" vertex="1">
                    <mxGeometry x="1026" y="88" width="133" height="34" as="geometry"/>
                </mxCell>
                <mxCell id="y37O_EtNxGeb2DHq4B8L-19" style="edgeStyle=orthogonalEdgeStyle;rounded=0;orthogonalLoop=1;jettySize=auto;html=1;exitX=0.75;exitY=1;exitDx=0;exitDy=0;entryX=0.75;entryY=0;entryDx=0;entryDy=0;" parent="1" source="y37O_EtNxGeb2DHq4B8L-16" target="y37O_EtNxGeb2DHq4B8L-12" edge="1">
                    <mxGeometry relative="1" as="geometry"/>
                </mxCell>
                <mxCell id="y37O_EtNxGeb2DHq4B8L-18" style="edgeStyle=orthogonalEdgeStyle;rounded=0;orthogonalLoop=1;jettySize=auto;html=1;exitX=0.25;exitY=0;exitDx=0;exitDy=0;entryX=0.25;entryY=1;entryDx=0;entryDy=0;" parent="1" source="y37O_EtNxGeb2DHq4B8L-12" target="y37O_EtNxGeb2DHq4B8L-16" edge="1">
                    <mxGeometry relative="1" as="geometry"/>
                </mxCell>
                <mxCell id="y37O_EtNxGeb2DHq4B8L-49" style="edgeStyle=orthogonalEdgeStyle;shape=connector;curved=0;rounded=1;orthogonalLoop=1;jettySize=auto;html=1;exitX=1;exitY=0.5;exitDx=0;exitDy=0;entryX=0.5;entryY=0;entryDx=0;entryDy=0;strokeColor=default;align=center;verticalAlign=middle;fontFamily=Helvetica;fontSize=11;fontColor=default;labelBackgroundColor=default;endArrow=classic;dashed=1;" parent="1" source="y37O_EtNxGeb2DHq4B8L-16" target="y37O_EtNxGeb2DHq4B8L-48" edge="1">
                    <mxGeometry relative="1" as="geometry"/>
                </mxCell>
                <mxCell id="y37O_EtNxGeb2DHq4B8L-54" style="edgeStyle=orthogonalEdgeStyle;shape=connector;curved=0;rounded=1;orthogonalLoop=1;jettySize=auto;html=1;exitX=0.25;exitY=0;exitDx=0;exitDy=0;entryX=0.25;entryY=1;entryDx=0;entryDy=0;strokeColor=default;align=center;verticalAlign=middle;fontFamily=Helvetica;fontSize=11;fontColor=default;labelBackgroundColor=default;endArrow=classic;" parent="1" source="y37O_EtNxGeb2DHq4B8L-50" target="y37O_EtNxGeb2DHq4B8L-52" edge="1">
                    <mxGeometry relative="1" as="geometry"/>
                </mxCell>
                <mxCell id="y37O_EtNxGeb2DHq4B8L-55" style="edgeStyle=orthogonalEdgeStyle;shape=connector;curved=0;rounded=1;orthogonalLoop=1;jettySize=auto;html=1;exitX=0.75;exitY=1;exitDx=0;exitDy=0;entryX=0.75;entryY=0;entryDx=0;entryDy=0;strokeColor=default;align=center;verticalAlign=middle;fontFamily=Helvetica;fontSize=11;fontColor=default;labelBackgroundColor=default;endArrow=classic;" parent="1" source="y37O_EtNxGeb2DHq4B8L-52" target="y37O_EtNxGeb2DHq4B8L-50" edge="1">
                    <mxGeometry relative="1" as="geometry"/>
                </mxCell>
                <mxCell id="y37O_EtNxGeb2DHq4B8L-58" style="edgeStyle=orthogonalEdgeStyle;shape=connector;curved=0;rounded=1;orthogonalLoop=1;jettySize=auto;html=1;exitX=0.25;exitY=0;exitDx=0;exitDy=0;entryX=0.25;entryY=1;entryDx=0;entryDy=0;strokeColor=default;align=center;verticalAlign=middle;fontFamily=Helvetica;fontSize=11;fontColor=default;labelBackgroundColor=default;endArrow=classic;" parent="1" source="y37O_EtNxGeb2DHq4B8L-56" target="y37O_EtNxGeb2DHq4B8L-51" edge="1">
                    <mxGeometry relative="1" as="geometry"/>
                </mxCell>
                <mxCell id="y37O_EtNxGeb2DHq4B8L-59" style="edgeStyle=orthogonalEdgeStyle;shape=connector;curved=0;rounded=1;orthogonalLoop=1;jettySize=auto;html=1;exitX=0.75;exitY=1;exitDx=0;exitDy=0;entryX=0.75;entryY=0;entryDx=0;entryDy=0;strokeColor=default;align=center;verticalAlign=middle;fontFamily=Helvetica;fontSize=11;fontColor=default;labelBackgroundColor=default;endArrow=classic;" parent="1" source="y37O_EtNxGeb2DHq4B8L-51" target="y37O_EtNxGeb2DHq4B8L-56" edge="1">
                    <mxGeometry relative="1" as="geometry"/>
                </mxCell>
                <mxCell id="lf90Kp6TcROZ7QwA9xwM-2" style="edgeStyle=orthogonalEdgeStyle;rounded=0;orthogonalLoop=1;jettySize=auto;html=1;exitX=0.25;exitY=1;exitDx=0;exitDy=0;entryX=0.25;entryY=0;entryDx=0;entryDy=0;" parent="1" source="y37O_EtNxGeb2DHq4B8L-2" target="lf90Kp6TcROZ7QwA9xwM-1" edge="1">
                    <mxGeometry relative="1" as="geometry"/>
                </mxCell>
                <mxCell id="lf90Kp6TcROZ7QwA9xwM-5" value="DATA" style="edgeLabel;html=1;align=center;verticalAlign=middle;resizable=0;points=[];" parent="lf90Kp6TcROZ7QwA9xwM-2" vertex="1" connectable="0">
                    <mxGeometry x="0.4186" relative="1" as="geometry">
                        <mxPoint x="1" y="12" as="offset"/>
                    </mxGeometry>
                </mxCell>
                <mxCell id="lf90Kp6TcROZ7QwA9xwM-3" style="edgeStyle=orthogonalEdgeStyle;rounded=0;orthogonalLoop=1;jettySize=auto;html=1;exitX=0.75;exitY=0;exitDx=0;exitDy=0;entryX=0.75;entryY=1;entryDx=0;entryDy=0;" parent="1" source="lf90Kp6TcROZ7QwA9xwM-1" target="y37O_EtNxGeb2DHq4B8L-2" edge="1">
                    <mxGeometry relative="1" as="geometry"/>
                </mxCell>
                <mxCell id="lf90Kp6TcROZ7QwA9xwM-4" value="SF_ID" style="edgeLabel;html=1;align=center;verticalAlign=middle;resizable=0;points=[];" parent="lf90Kp6TcROZ7QwA9xwM-3" vertex="1" connectable="0">
                    <mxGeometry x="-0.4553" y="3" relative="1" as="geometry">
                        <mxPoint y="9" as="offset"/>
                    </mxGeometry>
                </mxCell>
                <mxCell id="lf90Kp6TcROZ7QwA9xwM-11" style="edgeStyle=orthogonalEdgeStyle;rounded=0;orthogonalLoop=1;jettySize=auto;html=1;exitX=0.5;exitY=1;exitDx=0;exitDy=0;entryX=0.5;entryY=0;entryDx=0;entryDy=0;" parent="1" source="y37O_EtNxGeb2DHq4B8L-10" target="lf90Kp6TcROZ7QwA9xwM-10" edge="1">
                    <mxGeometry relative="1" as="geometry"/>
                </mxCell>
                <mxCell id="lf90Kp6TcROZ7QwA9xwM-13" style="edgeStyle=orthogonalEdgeStyle;rounded=0;orthogonalLoop=1;jettySize=auto;html=1;exitX=0.5;exitY=1;exitDx=0;exitDy=0;entryX=0.5;entryY=0;entryDx=0;entryDy=0;" parent="1" source="y37O_EtNxGeb2DHq4B8L-13" target="lf90Kp6TcROZ7QwA9xwM-12" edge="1">
                    <mxGeometry relative="1" as="geometry"/>
                </mxCell>
            </root>
        </mxGraphModel>
    </diagram>
</mxfile>